<mxfile host="app.diagrams.net" modified="2024-02-21T02:11:11.559Z" agent="Mozilla/5.0 (Windows NT 10.0; Win64; x64) AppleWebKit/537.36 (KHTML, like Gecko) Chrome/121.0.0.0 Safari/537.36" etag="XXiOEFHPNKoj_jTJjIlD" version="23.1.3" type="device">
  <diagram id="ltDb1r_3v9fbU79wgl96" name="Page-1">
    <mxGraphModel dx="2074" dy="1106" grid="1" gridSize="10" guides="1" tooltips="1" connect="1" arrows="1" fold="1" page="1" pageScale="1" pageWidth="850" pageHeight="1100" math="0" shadow="0">
      <root>
        <mxCell id="0" />
        <mxCell id="1" parent="0" />
        <mxCell id="SctZzlRnxu2SF3zeE7hY-23" value="" style="whiteSpace=wrap;html=1;" parent="1" vertex="1">
          <mxGeometry x="20" y="310" width="930" height="620" as="geometry" />
        </mxCell>
        <mxCell id="ROjNLifqc65OI51FtKDl-19" value="VARIABLE_SOURCE" style="shape=table;startSize=30;container=1;collapsible=1;childLayout=tableLayout;fixedRows=1;rowLines=0;fontStyle=1;align=center;resizeLast=1;fillColor=#B3B3B3;fontSize=14;" parent="1" vertex="1">
          <mxGeometry x="540" y="360" width="370" height="230" as="geometry" />
        </mxCell>
        <mxCell id="ROjNLifqc65OI51FtKDl-20" value="" style="shape=tableRow;horizontal=0;startSize=0;swimlaneHead=0;swimlaneBody=0;fillColor=none;collapsible=0;dropTarget=0;points=[[0,0.5],[1,0.5]];portConstraint=eastwest;top=0;left=0;right=0;bottom=1;" parent="ROjNLifqc65OI51FtKDl-19" vertex="1">
          <mxGeometry y="30" width="370" height="40" as="geometry" />
        </mxCell>
        <mxCell id="ROjNLifqc65OI51FtKDl-21" value="PK" style="shape=partialRectangle;connectable=0;fillColor=#E6E6E6;top=0;left=0;bottom=0;right=0;fontStyle=1;overflow=hidden;" parent="ROjNLifqc65OI51FtKDl-20" vertex="1">
          <mxGeometry width="120" height="40" as="geometry">
            <mxRectangle width="120" height="40" as="alternateBounds" />
          </mxGeometry>
        </mxCell>
        <mxCell id="ROjNLifqc65OI51FtKDl-22" value="variable_source_id" style="shape=partialRectangle;connectable=0;fillColor=#E6E6E6;top=0;left=0;bottom=0;right=0;align=left;spacingLeft=6;fontStyle=5;overflow=hidden;" parent="ROjNLifqc65OI51FtKDl-20" vertex="1">
          <mxGeometry x="120" width="250" height="40" as="geometry">
            <mxRectangle width="250" height="40" as="alternateBounds" />
          </mxGeometry>
        </mxCell>
        <mxCell id="ROjNLifqc65OI51FtKDl-23" value="" style="shape=tableRow;horizontal=0;startSize=0;swimlaneHead=0;swimlaneBody=0;fillColor=none;collapsible=0;dropTarget=0;points=[[0,0.5],[1,0.5]];portConstraint=eastwest;top=0;left=0;right=0;bottom=0;" parent="ROjNLifqc65OI51FtKDl-19" vertex="1">
          <mxGeometry y="70" width="370" height="40" as="geometry" />
        </mxCell>
        <mxCell id="ROjNLifqc65OI51FtKDl-24" value="Ingestion" style="shape=partialRectangle;connectable=0;fillColor=#E6FFCC;top=0;left=0;bottom=0;right=0;editable=1;overflow=hidden;" parent="ROjNLifqc65OI51FtKDl-23" vertex="1">
          <mxGeometry width="120" height="40" as="geometry">
            <mxRectangle width="120" height="40" as="alternateBounds" />
          </mxGeometry>
        </mxCell>
        <mxCell id="ROjNLifqc65OI51FtKDl-25" value="variable_name" style="shape=partialRectangle;connectable=0;fillColor=#E6FFCC;top=0;left=0;bottom=0;right=0;align=left;spacingLeft=6;overflow=hidden;" parent="ROjNLifqc65OI51FtKDl-23" vertex="1">
          <mxGeometry x="120" width="250" height="40" as="geometry">
            <mxRectangle width="250" height="40" as="alternateBounds" />
          </mxGeometry>
        </mxCell>
        <mxCell id="ROjNLifqc65OI51FtKDl-26" value="" style="shape=tableRow;horizontal=0;startSize=0;swimlaneHead=0;swimlaneBody=0;fillColor=none;collapsible=0;dropTarget=0;points=[[0,0.5],[1,0.5]];portConstraint=eastwest;top=0;left=0;right=0;bottom=0;" parent="ROjNLifqc65OI51FtKDl-19" vertex="1">
          <mxGeometry y="110" width="370" height="30" as="geometry" />
        </mxCell>
        <mxCell id="ROjNLifqc65OI51FtKDl-27" value="Descriptive" style="shape=partialRectangle;connectable=0;fillColor=#CCCCFF;top=0;left=0;bottom=0;right=0;editable=1;overflow=hidden;" parent="ROjNLifqc65OI51FtKDl-26" vertex="1">
          <mxGeometry width="120" height="30" as="geometry">
            <mxRectangle width="120" height="30" as="alternateBounds" />
          </mxGeometry>
        </mxCell>
        <mxCell id="ROjNLifqc65OI51FtKDl-28" value="variable_desc" style="shape=partialRectangle;connectable=0;fillColor=#CCCCFF;top=0;left=0;bottom=0;right=0;align=left;spacingLeft=6;overflow=hidden;" parent="ROjNLifqc65OI51FtKDl-26" vertex="1">
          <mxGeometry x="120" width="250" height="30" as="geometry">
            <mxRectangle width="250" height="30" as="alternateBounds" />
          </mxGeometry>
        </mxCell>
        <mxCell id="ROjNLifqc65OI51FtKDl-29" value="" style="shape=tableRow;horizontal=0;startSize=0;swimlaneHead=0;swimlaneBody=0;fillColor=none;collapsible=0;dropTarget=0;points=[[0,0.5],[1,0.5]];portConstraint=eastwest;top=0;left=0;right=0;bottom=0;" parent="ROjNLifqc65OI51FtKDl-19" vertex="1">
          <mxGeometry y="140" width="370" height="30" as="geometry" />
        </mxCell>
        <mxCell id="ROjNLifqc65OI51FtKDl-30" value="FK" style="shape=partialRectangle;connectable=0;fillColor=#E6E6E6;top=0;left=0;bottom=0;right=0;editable=1;overflow=hidden;" parent="ROjNLifqc65OI51FtKDl-29" vertex="1">
          <mxGeometry width="120" height="30" as="geometry">
            <mxRectangle width="120" height="30" as="alternateBounds" />
          </mxGeometry>
        </mxCell>
        <mxCell id="ROjNLifqc65OI51FtKDl-31" value="data_source_uuid" style="shape=partialRectangle;connectable=0;fillColor=#E6E6E6;top=0;left=0;bottom=0;right=0;align=left;spacingLeft=6;overflow=hidden;" parent="ROjNLifqc65OI51FtKDl-29" vertex="1">
          <mxGeometry x="120" width="250" height="30" as="geometry">
            <mxRectangle width="250" height="30" as="alternateBounds" />
          </mxGeometry>
        </mxCell>
        <mxCell id="ROjNLifqc65OI51FtKDl-100" style="shape=tableRow;horizontal=0;startSize=0;swimlaneHead=0;swimlaneBody=0;fillColor=none;collapsible=0;dropTarget=0;points=[[0,0.5],[1,0.5]];portConstraint=eastwest;top=0;left=0;right=0;bottom=0;" parent="ROjNLifqc65OI51FtKDl-19" vertex="1">
          <mxGeometry y="170" width="370" height="60" as="geometry" />
        </mxCell>
        <mxCell id="ROjNLifqc65OI51FtKDl-101" value="Translation logic for ATTRIBUTE data" style="shape=partialRectangle;connectable=0;fillColor=#99CCFF;top=0;left=0;bottom=0;right=0;editable=1;overflow=hidden;whiteSpace=wrap;" parent="ROjNLifqc65OI51FtKDl-100" vertex="1">
          <mxGeometry width="120" height="60" as="geometry">
            <mxRectangle width="120" height="60" as="alternateBounds" />
          </mxGeometry>
        </mxCell>
        <mxCell id="ROjNLifqc65OI51FtKDl-102" value="attr_spec" style="shape=partialRectangle;connectable=0;fillColor=#99CCFF;top=0;left=0;bottom=0;right=0;align=left;spacingLeft=6;overflow=hidden;" parent="ROjNLifqc65OI51FtKDl-100" vertex="1">
          <mxGeometry x="120" width="250" height="60" as="geometry">
            <mxRectangle width="250" height="60" as="alternateBounds" />
          </mxGeometry>
        </mxCell>
        <mxCell id="ROjNLifqc65OI51FtKDl-168" value="" style="edgeStyle=entityRelationEdgeStyle;fontSize=12;html=1;endArrow=ERzeroToMany;startArrow=ERmandOne;rounded=0;exitX=1;exitY=0.5;exitDx=0;exitDy=0;entryX=0;entryY=0.5;entryDx=0;entryDy=0;" parent="1" target="ROjNLifqc65OI51FtKDl-29" edge="1">
          <mxGeometry width="100" height="100" relative="1" as="geometry">
            <mxPoint x="440" y="410" as="sourcePoint" />
            <mxPoint x="670" y="690" as="targetPoint" />
          </mxGeometry>
        </mxCell>
        <mxCell id="ROjNLifqc65OI51FtKDl-6" value="DATA_SOURCE" style="shape=table;startSize=30;container=1;collapsible=1;childLayout=tableLayout;fixedRows=1;rowLines=0;fontStyle=1;align=center;resizeLast=1;fillColor=#B3B3B3;fontSize=15;" parent="1" vertex="1">
          <mxGeometry x="70" y="360" width="380" height="550" as="geometry" />
        </mxCell>
        <mxCell id="ROjNLifqc65OI51FtKDl-7" value="" style="shape=tableRow;horizontal=0;startSize=0;swimlaneHead=0;swimlaneBody=0;fillColor=none;collapsible=0;dropTarget=0;points=[[0,0.5],[1,0.5]];portConstraint=eastwest;top=0;left=0;right=0;bottom=1;" parent="ROjNLifqc65OI51FtKDl-6" vertex="1">
          <mxGeometry y="30" width="380" height="30" as="geometry" />
        </mxCell>
        <mxCell id="ROjNLifqc65OI51FtKDl-8" value="PK" style="shape=partialRectangle;connectable=0;fillColor=#E6E6E6;top=0;left=0;bottom=0;right=0;fontStyle=1;overflow=hidden;" parent="ROjNLifqc65OI51FtKDl-7" vertex="1">
          <mxGeometry width="130" height="30" as="geometry">
            <mxRectangle width="130" height="30" as="alternateBounds" />
          </mxGeometry>
        </mxCell>
        <mxCell id="ROjNLifqc65OI51FtKDl-9" value="data_source_uuid" style="shape=partialRectangle;connectable=0;fillColor=#E6E6E6;top=0;left=0;bottom=0;right=0;align=left;spacingLeft=6;fontStyle=5;overflow=hidden;" parent="ROjNLifqc65OI51FtKDl-7" vertex="1">
          <mxGeometry x="130" width="250" height="30" as="geometry">
            <mxRectangle width="250" height="30" as="alternateBounds" />
          </mxGeometry>
        </mxCell>
        <mxCell id="ROjNLifqc65OI51FtKDl-64" style="shape=tableRow;horizontal=0;startSize=0;swimlaneHead=0;swimlaneBody=0;fillColor=none;collapsible=0;dropTarget=0;points=[[0,0.5],[1,0.5]];portConstraint=eastwest;top=0;left=0;right=0;bottom=0;" parent="ROjNLifqc65OI51FtKDl-6" vertex="1">
          <mxGeometry y="60" width="380" height="40" as="geometry" />
        </mxCell>
        <mxCell id="ROjNLifqc65OI51FtKDl-65" value="Translation Logic for GEOMETRY data" style="shape=partialRectangle;connectable=0;fillColor=#99CCFF;top=0;left=0;bottom=0;right=0;editable=1;overflow=hidden;fontStyle=1;whiteSpace=wrap;" parent="ROjNLifqc65OI51FtKDl-64" vertex="1">
          <mxGeometry width="130" height="40" as="geometry">
            <mxRectangle width="130" height="40" as="alternateBounds" />
          </mxGeometry>
        </mxCell>
        <mxCell id="ROjNLifqc65OI51FtKDl-66" value="geom_spec" style="shape=partialRectangle;connectable=0;fillColor=#99CCFF;top=0;left=0;bottom=0;right=0;align=left;spacingLeft=6;overflow=hidden;" parent="ROjNLifqc65OI51FtKDl-64" vertex="1">
          <mxGeometry x="130" width="250" height="40" as="geometry">
            <mxRectangle width="250" height="40" as="alternateBounds" />
          </mxGeometry>
        </mxCell>
        <mxCell id="ROjNLifqc65OI51FtKDl-10" value="" style="shape=tableRow;horizontal=0;startSize=0;swimlaneHead=0;swimlaneBody=0;fillColor=none;collapsible=0;dropTarget=0;points=[[0,0.5],[1,0.5]];portConstraint=eastwest;top=0;left=0;right=0;bottom=0;" parent="ROjNLifqc65OI51FtKDl-6" vertex="1">
          <mxGeometry y="100" width="380" height="30" as="geometry" />
        </mxCell>
        <mxCell id="ROjNLifqc65OI51FtKDl-11" value="Retrieval &amp; Ingestion" style="shape=partialRectangle;connectable=1;fillColor=#E6FFCC;top=0;left=0;bottom=0;right=0;editable=1;overflow=hidden;movable=1;resizable=1;rotatable=1;deletable=1;locked=0;rowspan=14;colspan=1;fontStyle=1" parent="ROjNLifqc65OI51FtKDl-10" vertex="1">
          <mxGeometry width="130" height="420" as="geometry">
            <mxRectangle width="130" height="30" as="alternateBounds" />
          </mxGeometry>
        </mxCell>
        <mxCell id="ROjNLifqc65OI51FtKDl-12" value="org_id" style="shape=partialRectangle;connectable=0;fillColor=#E6FFCC;top=0;left=0;bottom=0;right=0;align=left;spacingLeft=6;overflow=hidden;" parent="ROjNLifqc65OI51FtKDl-10" vertex="1">
          <mxGeometry x="130" width="250" height="30" as="geometry">
            <mxRectangle width="250" height="30" as="alternateBounds" />
          </mxGeometry>
        </mxCell>
        <mxCell id="ROjNLifqc65OI51FtKDl-13" value="" style="shape=tableRow;horizontal=0;startSize=0;swimlaneHead=0;swimlaneBody=0;fillColor=none;collapsible=0;dropTarget=0;points=[[0,0.5],[1,0.5]];portConstraint=eastwest;top=0;left=0;right=0;bottom=0;" parent="ROjNLifqc65OI51FtKDl-6" vertex="1">
          <mxGeometry y="130" width="380" height="30" as="geometry" />
        </mxCell>
        <mxCell id="ROjNLifqc65OI51FtKDl-14" value="" style="shape=partialRectangle;connectable=1;fillColor=#E6FFCC;top=0;left=0;bottom=0;right=0;editable=1;overflow=hidden;movable=1;resizable=1;rotatable=1;deletable=1;locked=0;" parent="ROjNLifqc65OI51FtKDl-13" vertex="1" visible="0">
          <mxGeometry width="130" height="30" as="geometry">
            <mxRectangle width="130" height="30" as="alternateBounds" />
          </mxGeometry>
        </mxCell>
        <mxCell id="ROjNLifqc65OI51FtKDl-15" value="org_set_id" style="shape=partialRectangle;connectable=0;fillColor=#E6FFCC;top=0;left=0;bottom=0;right=0;align=left;spacingLeft=6;overflow=hidden;" parent="ROjNLifqc65OI51FtKDl-13" vertex="1">
          <mxGeometry x="130" width="250" height="30" as="geometry">
            <mxRectangle width="250" height="30" as="alternateBounds" />
          </mxGeometry>
        </mxCell>
        <mxCell id="ROjNLifqc65OI51FtKDl-16" value="" style="shape=tableRow;horizontal=0;startSize=0;swimlaneHead=0;swimlaneBody=0;fillColor=none;collapsible=0;dropTarget=0;points=[[0,0.5],[1,0.5]];portConstraint=eastwest;top=0;left=0;right=0;bottom=0;" parent="ROjNLifqc65OI51FtKDl-6" vertex="1">
          <mxGeometry y="160" width="380" height="30" as="geometry" />
        </mxCell>
        <mxCell id="ROjNLifqc65OI51FtKDl-17" value="" style="shape=partialRectangle;connectable=1;fillColor=#E6FFCC;top=0;left=0;bottom=0;right=0;editable=1;overflow=hidden;movable=1;resizable=1;rotatable=1;deletable=1;locked=0;" parent="ROjNLifqc65OI51FtKDl-16" vertex="1" visible="0">
          <mxGeometry width="130" height="30" as="geometry">
            <mxRectangle width="130" height="30" as="alternateBounds" />
          </mxGeometry>
        </mxCell>
        <mxCell id="ROjNLifqc65OI51FtKDl-18" value="dataset_name" style="shape=partialRectangle;connectable=0;fillColor=#E6FFCC;top=0;left=0;bottom=0;right=0;align=left;spacingLeft=6;overflow=hidden;" parent="ROjNLifqc65OI51FtKDl-16" vertex="1">
          <mxGeometry x="130" width="250" height="30" as="geometry">
            <mxRectangle width="250" height="30" as="alternateBounds" />
          </mxGeometry>
        </mxCell>
        <mxCell id="ROjNLifqc65OI51FtKDl-58" style="shape=tableRow;horizontal=0;startSize=0;swimlaneHead=0;swimlaneBody=0;fillColor=none;collapsible=0;dropTarget=0;points=[[0,0.5],[1,0.5]];portConstraint=eastwest;top=0;left=0;right=0;bottom=0;" parent="ROjNLifqc65OI51FtKDl-6" vertex="1">
          <mxGeometry y="190" width="380" height="30" as="geometry" />
        </mxCell>
        <mxCell id="ROjNLifqc65OI51FtKDl-59" style="shape=partialRectangle;connectable=1;fillColor=#E6FFCC;top=0;left=0;bottom=0;right=0;editable=1;overflow=hidden;movable=1;resizable=1;rotatable=1;deletable=1;locked=0;" parent="ROjNLifqc65OI51FtKDl-58" vertex="1" visible="0">
          <mxGeometry width="130" height="30" as="geometry">
            <mxRectangle width="130" height="30" as="alternateBounds" />
          </mxGeometry>
        </mxCell>
        <mxCell id="ROjNLifqc65OI51FtKDl-60" value="dataset_version   " style="shape=partialRectangle;connectable=0;fillColor=#E6FFCC;top=0;left=0;bottom=0;right=0;align=left;spacingLeft=6;overflow=hidden;" parent="ROjNLifqc65OI51FtKDl-58" vertex="1">
          <mxGeometry x="130" width="250" height="30" as="geometry">
            <mxRectangle width="250" height="30" as="alternateBounds" />
          </mxGeometry>
        </mxCell>
        <mxCell id="ROjNLifqc65OI51FtKDl-61" style="shape=tableRow;horizontal=0;startSize=0;swimlaneHead=0;swimlaneBody=0;fillColor=none;collapsible=0;dropTarget=0;points=[[0,0.5],[1,0.5]];portConstraint=eastwest;top=0;left=0;right=0;bottom=0;" parent="ROjNLifqc65OI51FtKDl-6" vertex="1">
          <mxGeometry y="220" width="380" height="30" as="geometry" />
        </mxCell>
        <mxCell id="ROjNLifqc65OI51FtKDl-62" style="shape=partialRectangle;connectable=1;fillColor=#E6FFCC;top=0;left=0;bottom=0;right=0;editable=1;overflow=hidden;movable=1;resizable=1;rotatable=1;deletable=1;locked=0;" parent="ROjNLifqc65OI51FtKDl-61" vertex="1" visible="0">
          <mxGeometry width="130" height="30" as="geometry">
            <mxRectangle width="130" height="30" as="alternateBounds" />
          </mxGeometry>
        </mxCell>
        <mxCell id="ROjNLifqc65OI51FtKDl-63" value="geom_type" style="shape=partialRectangle;connectable=0;fillColor=#E6FFCC;top=0;left=0;bottom=0;right=0;align=left;spacingLeft=6;overflow=hidden;" parent="ROjNLifqc65OI51FtKDl-61" vertex="1">
          <mxGeometry x="130" width="250" height="30" as="geometry">
            <mxRectangle width="250" height="30" as="alternateBounds" />
          </mxGeometry>
        </mxCell>
        <mxCell id="ROjNLifqc65OI51FtKDl-67" style="shape=tableRow;horizontal=0;startSize=0;swimlaneHead=0;swimlaneBody=0;fillColor=none;collapsible=0;dropTarget=0;points=[[0,0.5],[1,0.5]];portConstraint=eastwest;top=0;left=0;right=0;bottom=0;" parent="ROjNLifqc65OI51FtKDl-6" vertex="1">
          <mxGeometry y="250" width="380" height="30" as="geometry" />
        </mxCell>
        <mxCell id="ROjNLifqc65OI51FtKDl-68" style="shape=partialRectangle;connectable=1;fillColor=#E6FFCC;top=0;left=0;bottom=0;right=0;editable=1;overflow=hidden;movable=1;resizable=1;rotatable=1;deletable=1;locked=0;" parent="ROjNLifqc65OI51FtKDl-67" vertex="1" visible="0">
          <mxGeometry width="130" height="30" as="geometry">
            <mxRectangle width="130" height="30" as="alternateBounds" />
          </mxGeometry>
        </mxCell>
        <mxCell id="ROjNLifqc65OI51FtKDl-69" value="boundary_type" style="shape=partialRectangle;connectable=0;fillColor=#E6FFCC;top=0;left=0;bottom=0;right=0;align=left;spacingLeft=6;overflow=hidden;" parent="ROjNLifqc65OI51FtKDl-67" vertex="1">
          <mxGeometry x="130" width="250" height="30" as="geometry">
            <mxRectangle width="250" height="30" as="alternateBounds" />
          </mxGeometry>
        </mxCell>
        <mxCell id="ROjNLifqc65OI51FtKDl-70" style="shape=tableRow;horizontal=0;startSize=0;swimlaneHead=0;swimlaneBody=0;fillColor=none;collapsible=0;dropTarget=0;points=[[0,0.5],[1,0.5]];portConstraint=eastwest;top=0;left=0;right=0;bottom=0;" parent="ROjNLifqc65OI51FtKDl-6" vertex="1">
          <mxGeometry y="280" width="380" height="30" as="geometry" />
        </mxCell>
        <mxCell id="ROjNLifqc65OI51FtKDl-71" style="shape=partialRectangle;connectable=1;fillColor=#E6FFCC;top=0;left=0;bottom=0;right=0;editable=1;overflow=hidden;movable=1;resizable=1;rotatable=1;deletable=1;locked=0;" parent="ROjNLifqc65OI51FtKDl-70" vertex="1" visible="0">
          <mxGeometry width="130" height="30" as="geometry">
            <mxRectangle width="130" height="30" as="alternateBounds" />
          </mxGeometry>
        </mxCell>
        <mxCell id="ROjNLifqc65OI51FtKDl-72" value="has_attributes" style="shape=partialRectangle;connectable=0;fillColor=#E6FFCC;top=0;left=0;bottom=0;right=0;align=left;spacingLeft=6;overflow=hidden;" parent="ROjNLifqc65OI51FtKDl-70" vertex="1">
          <mxGeometry x="130" width="250" height="30" as="geometry">
            <mxRectangle width="250" height="30" as="alternateBounds" />
          </mxGeometry>
        </mxCell>
        <mxCell id="ROjNLifqc65OI51FtKDl-73" style="shape=tableRow;horizontal=0;startSize=0;swimlaneHead=0;swimlaneBody=0;fillColor=none;collapsible=0;dropTarget=0;points=[[0,0.5],[1,0.5]];portConstraint=eastwest;top=0;left=0;right=0;bottom=0;" parent="ROjNLifqc65OI51FtKDl-6" vertex="1">
          <mxGeometry y="310" width="380" height="30" as="geometry" />
        </mxCell>
        <mxCell id="ROjNLifqc65OI51FtKDl-74" style="shape=partialRectangle;connectable=0;fillColor=#E6FFCC;top=0;left=0;bottom=0;right=0;editable=1;overflow=hidden;" parent="ROjNLifqc65OI51FtKDl-73" vertex="1" visible="0">
          <mxGeometry width="130" height="30" as="geometry">
            <mxRectangle width="130" height="30" as="alternateBounds" />
          </mxGeometry>
        </mxCell>
        <mxCell id="ROjNLifqc65OI51FtKDl-75" value="geom_dependency_uuid" style="shape=partialRectangle;connectable=0;fillColor=#E6FFCC;top=0;left=0;bottom=0;right=0;align=left;spacingLeft=6;overflow=hidden;" parent="ROjNLifqc65OI51FtKDl-73" vertex="1">
          <mxGeometry x="130" width="250" height="30" as="geometry">
            <mxRectangle width="250" height="30" as="alternateBounds" />
          </mxGeometry>
        </mxCell>
        <mxCell id="ROjNLifqc65OI51FtKDl-76" style="shape=tableRow;horizontal=0;startSize=0;swimlaneHead=0;swimlaneBody=0;fillColor=none;collapsible=0;dropTarget=0;points=[[0,0.5],[1,0.5]];portConstraint=eastwest;top=0;left=0;right=0;bottom=0;" parent="ROjNLifqc65OI51FtKDl-6" vertex="1">
          <mxGeometry y="340" width="380" height="30" as="geometry" />
        </mxCell>
        <mxCell id="ROjNLifqc65OI51FtKDl-77" style="shape=partialRectangle;connectable=0;fillColor=#E6FFCC;top=0;left=0;bottom=0;right=0;editable=1;overflow=hidden;" parent="ROjNLifqc65OI51FtKDl-76" vertex="1" visible="0">
          <mxGeometry width="130" height="30" as="geometry">
            <mxRectangle width="130" height="30" as="alternateBounds" />
          </mxGeometry>
        </mxCell>
        <mxCell id="ROjNLifqc65OI51FtKDl-78" value="download_method" style="shape=partialRectangle;connectable=0;fillColor=#E6FFCC;top=0;left=0;bottom=0;right=0;align=left;spacingLeft=6;overflow=hidden;" parent="ROjNLifqc65OI51FtKDl-76" vertex="1">
          <mxGeometry x="130" width="250" height="30" as="geometry">
            <mxRectangle width="250" height="30" as="alternateBounds" />
          </mxGeometry>
        </mxCell>
        <mxCell id="ROjNLifqc65OI51FtKDl-79" style="shape=tableRow;horizontal=0;startSize=0;swimlaneHead=0;swimlaneBody=0;fillColor=none;collapsible=0;dropTarget=0;points=[[0,0.5],[1,0.5]];portConstraint=eastwest;top=0;left=0;right=0;bottom=0;" parent="ROjNLifqc65OI51FtKDl-6" vertex="1">
          <mxGeometry y="370" width="380" height="30" as="geometry" />
        </mxCell>
        <mxCell id="ROjNLifqc65OI51FtKDl-80" style="shape=partialRectangle;connectable=0;fillColor=#E6FFCC;top=0;left=0;bottom=0;right=0;editable=1;overflow=hidden;" parent="ROjNLifqc65OI51FtKDl-79" vertex="1" visible="0">
          <mxGeometry width="130" height="30" as="geometry">
            <mxRectangle width="130" height="30" as="alternateBounds" />
          </mxGeometry>
        </mxCell>
        <mxCell id="ROjNLifqc65OI51FtKDl-81" value="download_subtype" style="shape=partialRectangle;connectable=0;fillColor=#E6FFCC;top=0;left=0;bottom=0;right=0;align=left;spacingLeft=6;overflow=hidden;" parent="ROjNLifqc65OI51FtKDl-79" vertex="1">
          <mxGeometry x="130" width="250" height="30" as="geometry">
            <mxRectangle width="250" height="30" as="alternateBounds" />
          </mxGeometry>
        </mxCell>
        <mxCell id="ROjNLifqc65OI51FtKDl-82" style="shape=tableRow;horizontal=0;startSize=0;swimlaneHead=0;swimlaneBody=0;fillColor=none;collapsible=0;dropTarget=0;points=[[0,0.5],[1,0.5]];portConstraint=eastwest;top=0;left=0;right=0;bottom=0;" parent="ROjNLifqc65OI51FtKDl-6" vertex="1">
          <mxGeometry y="400" width="380" height="30" as="geometry" />
        </mxCell>
        <mxCell id="ROjNLifqc65OI51FtKDl-83" style="shape=partialRectangle;connectable=0;fillColor=#E6FFCC;top=0;left=0;bottom=0;right=0;editable=1;overflow=hidden;" parent="ROjNLifqc65OI51FtKDl-82" vertex="1" visible="0">
          <mxGeometry width="130" height="30" as="geometry">
            <mxRectangle width="130" height="30" as="alternateBounds" />
          </mxGeometry>
        </mxCell>
        <mxCell id="ROjNLifqc65OI51FtKDl-84" value="download_data_standard" style="shape=partialRectangle;connectable=0;fillColor=#E6FFCC;top=0;left=0;bottom=0;right=0;align=left;spacingLeft=6;overflow=hidden;" parent="ROjNLifqc65OI51FtKDl-82" vertex="1">
          <mxGeometry x="130" width="250" height="30" as="geometry">
            <mxRectangle width="250" height="30" as="alternateBounds" />
          </mxGeometry>
        </mxCell>
        <mxCell id="ROjNLifqc65OI51FtKDl-85" style="shape=tableRow;horizontal=0;startSize=0;swimlaneHead=0;swimlaneBody=0;fillColor=none;collapsible=0;dropTarget=0;points=[[0,0.5],[1,0.5]];portConstraint=eastwest;top=0;left=0;right=0;bottom=0;" parent="ROjNLifqc65OI51FtKDl-6" vertex="1">
          <mxGeometry y="430" width="380" height="30" as="geometry" />
        </mxCell>
        <mxCell id="ROjNLifqc65OI51FtKDl-86" style="shape=partialRectangle;connectable=0;fillColor=#E6FFCC;top=0;left=0;bottom=0;right=0;editable=1;overflow=hidden;" parent="ROjNLifqc65OI51FtKDl-85" vertex="1" visible="0">
          <mxGeometry width="130" height="30" as="geometry">
            <mxRectangle width="130" height="30" as="alternateBounds" />
          </mxGeometry>
        </mxCell>
        <mxCell id="ROjNLifqc65OI51FtKDl-87" value="download_filename" style="shape=partialRectangle;connectable=0;fillColor=#E6FFCC;top=0;left=0;bottom=0;right=0;align=left;spacingLeft=6;overflow=hidden;" parent="ROjNLifqc65OI51FtKDl-85" vertex="1">
          <mxGeometry x="130" width="250" height="30" as="geometry">
            <mxRectangle width="250" height="30" as="alternateBounds" />
          </mxGeometry>
        </mxCell>
        <mxCell id="ROjNLifqc65OI51FtKDl-88" style="shape=tableRow;horizontal=0;startSize=0;swimlaneHead=0;swimlaneBody=0;fillColor=none;collapsible=0;dropTarget=0;points=[[0,0.5],[1,0.5]];portConstraint=eastwest;top=0;left=0;right=0;bottom=0;" parent="ROjNLifqc65OI51FtKDl-6" vertex="1">
          <mxGeometry y="460" width="380" height="30" as="geometry" />
        </mxCell>
        <mxCell id="ROjNLifqc65OI51FtKDl-89" style="shape=partialRectangle;connectable=0;fillColor=#E6FFCC;top=0;left=0;bottom=0;right=0;editable=1;overflow=hidden;" parent="ROjNLifqc65OI51FtKDl-88" vertex="1" visible="0">
          <mxGeometry width="130" height="30" as="geometry">
            <mxRectangle width="130" height="30" as="alternateBounds" />
          </mxGeometry>
        </mxCell>
        <mxCell id="ROjNLifqc65OI51FtKDl-90" value="download_url" style="shape=partialRectangle;connectable=0;fillColor=#E6FFCC;top=0;left=0;bottom=0;right=0;align=left;spacingLeft=6;overflow=hidden;" parent="ROjNLifqc65OI51FtKDl-88" vertex="1">
          <mxGeometry x="130" width="250" height="30" as="geometry">
            <mxRectangle width="250" height="30" as="alternateBounds" />
          </mxGeometry>
        </mxCell>
        <mxCell id="ROjNLifqc65OI51FtKDl-91" style="shape=tableRow;horizontal=0;startSize=0;swimlaneHead=0;swimlaneBody=0;fillColor=none;collapsible=0;dropTarget=0;points=[[0,0.5],[1,0.5]];portConstraint=eastwest;top=0;left=0;right=0;bottom=0;" parent="ROjNLifqc65OI51FtKDl-6" vertex="1">
          <mxGeometry y="490" width="380" height="30" as="geometry" />
        </mxCell>
        <mxCell id="ROjNLifqc65OI51FtKDl-92" style="shape=partialRectangle;connectable=0;fillColor=#E6FFCC;top=0;left=0;bottom=0;right=0;editable=1;overflow=hidden;" parent="ROjNLifqc65OI51FtKDl-91" vertex="1" visible="0">
          <mxGeometry width="130" height="30" as="geometry">
            <mxRectangle width="130" height="30" as="alternateBounds" />
          </mxGeometry>
        </mxCell>
        <mxCell id="ROjNLifqc65OI51FtKDl-93" value="download_auth" style="shape=partialRectangle;connectable=0;fillColor=#E6FFCC;top=0;left=0;bottom=0;right=0;align=left;spacingLeft=6;overflow=hidden;" parent="ROjNLifqc65OI51FtKDl-91" vertex="1">
          <mxGeometry x="130" width="250" height="30" as="geometry">
            <mxRectangle width="250" height="30" as="alternateBounds" />
          </mxGeometry>
        </mxCell>
        <mxCell id="ROjNLifqc65OI51FtKDl-94" style="shape=tableRow;horizontal=0;startSize=0;swimlaneHead=0;swimlaneBody=0;fillColor=none;collapsible=0;dropTarget=0;points=[[0,0.5],[1,0.5]];portConstraint=eastwest;top=0;left=0;right=0;bottom=0;" parent="ROjNLifqc65OI51FtKDl-6" vertex="1">
          <mxGeometry y="520" width="380" height="30" as="geometry" />
        </mxCell>
        <mxCell id="ROjNLifqc65OI51FtKDl-95" value="Descriptive" style="shape=partialRectangle;connectable=0;fillColor=#CCCCFF;top=0;left=0;bottom=0;right=0;editable=1;overflow=hidden;fontStyle=1" parent="ROjNLifqc65OI51FtKDl-94" vertex="1">
          <mxGeometry width="130" height="30" as="geometry">
            <mxRectangle width="130" height="30" as="alternateBounds" />
          </mxGeometry>
        </mxCell>
        <mxCell id="ROjNLifqc65OI51FtKDl-96" value="documentation_url" style="shape=partialRectangle;connectable=0;fillColor=#CCCCFF;top=0;left=0;bottom=0;right=0;align=left;spacingLeft=6;overflow=hidden;" parent="ROjNLifqc65OI51FtKDl-94" vertex="1">
          <mxGeometry x="130" width="250" height="30" as="geometry">
            <mxRectangle width="250" height="30" as="alternateBounds" />
          </mxGeometry>
        </mxCell>
        <mxCell id="SctZzlRnxu2SF3zeE7hY-21" value="" style="verticalLabelPosition=bottom;verticalAlign=top;html=1;shape=mxgraph.basic.star;fillColor=#99CCFF;" parent="1" vertex="1">
          <mxGeometry x="30" y="430" width="30" height="25" as="geometry" />
        </mxCell>
        <mxCell id="SctZzlRnxu2SF3zeE7hY-22" value="" style="verticalLabelPosition=bottom;verticalAlign=top;html=1;shape=mxgraph.basic.star;fillColor=#99CCFF;" parent="1" vertex="1">
          <mxGeometry x="500" y="550" width="30" height="25" as="geometry" />
        </mxCell>
        <mxCell id="6Su6K1njeISQVqmTv5eZ-1" value="" style="verticalLabelPosition=bottom;verticalAlign=top;html=1;shape=mxgraph.basic.star;fillColor=#99CCFF;" vertex="1" parent="1">
          <mxGeometry x="770" y="895" width="30" height="30" as="geometry" />
        </mxCell>
        <mxCell id="6Su6K1njeISQVqmTv5eZ-3" value="Functional Metadata" style="shape=partialRectangle;connectable=0;fillColor=none;top=0;left=0;bottom=0;right=0;align=left;spacingLeft=6;overflow=hidden;fontSize=15;" vertex="1" parent="1">
          <mxGeometry x="800" y="890" width="150" height="40" as="geometry">
            <mxRectangle width="250" height="30" as="alternateBounds" />
          </mxGeometry>
        </mxCell>
      </root>
    </mxGraphModel>
  </diagram>
</mxfile>
